<?xml version="1.0" encoding="UTF-8" standalone="no"?>
<svg width="3840" height="2560" viewBox="0 0 3840 2560" xmlns="http://www.w3.org/2000/svg">
  <rect width="100%" height="100%" fill="#05080f" />
<polygon points="1634.96,45.45 1626.96,43.84 1621.55,49.96 1623.16,41.96 1617.04,36.55 1625.04,38.16 1630.45,32.04 1628.84,40.04" fill="#f5a623" />
<polygon points="1827.62,1210.95 1822.14,1208.24 1817.05,1211.62 1819.76,1206.14 1816.38,1201.05 1821.86,1203.76 1826.95,1200.38 1824.24,1205.86" fill="#c2c8d1" />
<polygon points="1791.77,1497.13 1783.62,1497.52 1779.87,1504.77 1779.48,1496.62 1772.23,1492.87 1780.38,1492.48 1784.13,1485.23 1784.52,1493.38" fill="#f5a623" />
<polygon points="1640.15,1439.16 1634.48,1440.55 1632.84,1446.15 1631.45,1440.48 1625.85,1438.84 1631.52,1437.45 1633.16,1431.85 1634.55,1437.52" fill="#c2c8d1" />
<polygon points="747.84,2236.77 739.71,2237.46 736.23,2244.84 735.54,2236.71 728.16,2233.23 736.29,2232.54 739.77,2225.16 740.46,2233.29" fill="#f8b13a" />
<polygon points="3486.51,190.88 3479.77,189.41 3475.12,194.51 3476.59,187.77 3471.49,183.12 3478.23,184.59 3482.88,179.49 3481.41,186.23" fill="#52796f" />
<polygon points="2425.45,620.14 2419.49,618.25 2414.86,622.45 2416.75,616.49 2412.55,611.86 2418.51,613.75 2423.14,609.55 2421.25,615.51" fill="#c2c8d1" />
<polygon points="3827.01,1090.00 3820.85,1089.12 3817.00,1094.01 3817.88,1087.85 3812.99,1084.00 3819.15,1084.88 3823.00,1079.99 3822.12,1086.15" fill="#c2c8d1" />
<polygon points="2251.41,1628.87 2245.18,1628.97 2242.13,1634.41 2242.03,1628.18 2236.59,1625.13 2242.82,1625.03 2245.87,1619.59 2245.97,1625.82" fill="#c2c8d1" />
<polygon points="2531.28,2224.92 2526.29,2222.95 2522.08,2226.28 2524.05,2221.29 2520.72,2217.08 2525.71,2219.05 2529.92,2215.72 2527.95,2220.71" fill="#c2c8d1" />
<polygon points="8.19,251.61 2.76,250.87 -0.61,255.19 0.13,249.76 -4.19,246.39 1.24,247.13 4.61,242.81 3.87,248.24" fill="#c2c8d1" />
<polygon points="3299.09,1104.97 3293.24,1102.35 3288.03,1106.09 3290.65,1100.24 3286.91,1095.03 3292.76,1097.65 3297.97,1093.91 3295.35,1099.76" fill="#c2c8d1" />
<polygon points="2121.88,1235.49 2116.51,1233.99 2112.51,1237.88 2114.01,1232.51 2110.12,1228.51 2115.49,1230.01 2119.49,1226.12 2117.99,1231.49" fill="#52796f" />
<polygon points="2917.54,1085.40 2912.03,1082.32 2906.60,1085.54 2909.68,1080.03 2906.46,1074.60 2911.97,1077.68 2917.40,1074.46 2914.32,1079.97" fill="#c2c8d1" />
<polygon points="2639.01,1812.82 2633.89,1812.66 2631.18,1817.01 2631.34,1811.89 2626.99,1809.18 2632.11,1809.34 2634.82,1804.99 2634.66,1810.11" fill="#c2c8d1" />
<polygon points="3344.57,1232.94 3338.19,1233.02 3335.06,1238.57 3334.98,1232.19 3329.43,1229.06 3335.81,1228.98 3338.94,1223.43 3339.02,1229.81" fill="#c2c8d1" />
<polygon points="1947.05,1635.30 1941.80,1634.77 1938.70,1639.05 1939.23,1633.80 1934.95,1630.70 1940.20,1631.23 1943.30,1626.95 1942.77,1632.20" fill="#c2c8d1" />
<polygon points="1676.74,1639.85 1668.83,1637.88 1663.15,1643.74 1665.12,1635.83 1659.26,1630.15 1667.17,1632.12 1672.85,1626.26 1670.88,1634.17" fill="#f8b13a" />
<polygon points="807.07,1066.02 790.77,1065.32 781.98,1079.07 782.68,1062.77 768.93,1053.98 785.23,1054.68 794.02,1040.93 793.32,1057.23" fill="#f5a623" />
<polygon points="1374.45,433.06 1369.08,430.23 1363.94,433.45 1366.77,428.08 1363.55,422.94 1368.92,425.77 1374.06,422.55 1371.23,427.92" fill="#c2c8d1" />
<polygon points="3315.17,2430.21 3310.26,2431.35 3308.79,2436.17 3307.65,2431.26 3302.83,2429.79 3307.74,2428.65 3309.21,2423.83 3310.35,2428.74" fill="#f5a623" />
<polygon points="2101.85,897.35 2095.32,894.59 2089.65,898.85 2092.41,892.32 2088.15,886.65 2094.68,889.41 2100.35,885.15 2097.59,891.68" fill="#52796f" />
<polygon points="1996.48,1537.07 1990.36,1537.81 1987.93,1543.48 1987.19,1537.36 1981.52,1534.93 1987.64,1534.19 1990.07,1528.52 1990.81,1534.64" fill="#c2c8d1" />
<polygon points="2066.96,1738.18 2060.80,1737.15 2056.82,1741.96 2057.85,1735.80 2053.04,1731.82 2059.20,1732.85 2063.18,1728.04 2062.15,1734.20" fill="#f8b13a" />
<polygon points="3641.73,1382.31 3633.57,1382.55 3629.69,1389.73 3629.45,1381.57 3622.27,1377.69 3630.43,1377.45 3634.31,1370.27 3634.55,1378.43" fill="#f8b13a" />
<polygon points="2374.36,1803.86 2369.32,1801.96 2365.14,1805.36 2367.04,1800.32 2363.64,1796.14 2368.68,1798.04 2372.86,1794.64 2370.96,1799.68" fill="#c2c8d1" />
<polygon points="1269.20,407.92 1261.12,406.78 1256.08,413.20 1257.22,405.12 1250.80,400.08 1258.88,401.22 1263.92,394.80 1262.78,402.88" fill="#c2c8d1" />
<polygon points="827.11,1469.39 821.00,1469.01 817.61,1474.11 817.99,1468.00 812.89,1464.61 819.00,1464.99 822.39,1459.89 822.01,1466.00" fill="#c2c8d1" />
<polygon points="2421.03,1589.33 2416.36,1587.77 2412.67,1591.03 2414.23,1586.36 2410.97,1582.67 2415.64,1584.23 2419.33,1580.97 2417.77,1585.64" fill="#c2c8d1" />
<polygon points="907.87,1510.60 899.75,1511.43 896.40,1518.87 895.57,1510.75 888.13,1507.40 896.25,1506.57 899.60,1499.13 900.43,1507.25" fill="#f8b13a" />
<polygon points="3683.23,972.58 3677.41,973.66 3675.42,979.23 3674.34,973.41 3668.77,971.42 3674.59,970.34 3676.58,964.77 3677.66,970.59" fill="#f5a623" />
<polygon points="2147.78,234.17 2142.55,232.90 2138.83,236.78 2140.10,231.55 2136.22,227.83 2141.45,229.10 2145.17,225.22 2143.90,230.45" fill="#f5a623" />
<polygon points="3145.64,1300.03 3137.77,1297.90 3131.97,1303.64 3134.10,1295.77 3128.36,1289.97 3136.23,1292.10 3142.03,1286.36 3139.90,1294.23" fill="#f5a623" />
<polygon points="929.81,2056.73 923.50,2057.81 921.27,2063.81 920.19,2057.50 914.19,2055.27 920.50,2054.19 922.73,2048.19 923.81,2054.50" fill="#c2c8d1" />
<polygon points="1440.86,2209.49 1434.35,2209.98 1431.51,2215.86 1431.02,2209.35 1425.14,2206.51 1431.65,2206.02 1434.49,2200.14 1434.98,2206.65" fill="#c2c8d1" />
<polygon points="3585.99,1702.52 3578.01,1704.23 3575.48,1711.99 3573.77,1704.01 3566.01,1701.48 3573.99,1699.77 3576.52,1692.01 3578.23,1699.99" fill="#f5a623" />
<polygon points="1539.38,928.83 1534.33,926.95 1530.17,930.38 1532.05,925.33 1528.62,921.17 1533.67,923.05 1537.83,919.62 1535.95,924.67" fill="#c2c8d1" />
<polygon points="401.61,1807.75 393.45,1807.62 389.25,1814.61 389.38,1806.45 382.39,1802.25 390.55,1802.38 394.75,1795.39 394.62,1803.55" fill="#f5a623" />
<polygon points="1393.99,2189.39 1385.98,2187.84 1380.61,2193.99 1382.16,2185.98 1376.01,2180.61 1384.02,2182.16 1389.39,2176.01 1387.84,2184.02" fill="#f5a623" />
<polygon points="2317.66,1007.99 2309.78,1005.90 2304.01,1011.66 2306.10,1003.78 2300.34,998.01 2308.22,1000.10 2313.99,994.34 2311.90,1002.22" fill="#f5a623" />
<polygon points="3207.87,1304.33 3201.96,1303.95 3198.67,1308.87 3199.05,1302.96 3194.13,1299.67 3200.04,1300.05 3203.33,1295.13 3202.95,1301.04" fill="#f5a623" />
<polygon points="1407.30,2437.65 1401.35,2435.32 1396.35,2439.30 1398.68,2433.35 1394.70,2428.35 1400.65,2430.68 1405.65,2426.70 1403.32,2432.65" fill="#c2c8d1" />
<polygon points="3739.21,2236.02 3734.10,2236.53 3731.98,2241.21 3731.47,2236.10 3726.79,2233.98 3731.90,2233.47 3734.02,2228.79 3734.53,2233.90" fill="#c2c8d1" />
<polygon points="2685.65,485.34 2680.34,486.48 2678.66,491.65 2677.52,486.34 2672.35,484.66 2677.66,483.52 2679.34,478.35 2680.48,483.66" fill="#f5a623" />
<polygon points="2415.34,1556.84 2409.74,1555.95 2406.16,1560.34 2407.05,1554.74 2402.66,1551.16 2408.26,1552.05 2411.84,1547.66 2410.95,1553.26" fill="#52796f" />
<polygon points="18.41,1307.41 10.63,1304.93 4.59,1310.41 7.07,1302.63 1.59,1296.59 9.37,1299.07 15.41,1293.59 12.93,1301.37" fill="#f8b13a" />
<polygon points="2584.50,321.11 2579.08,318.25 2573.89,321.50 2576.75,316.08 2573.50,310.89 2578.92,313.75 2584.11,310.50 2581.25,315.92" fill="#c2c8d1" />
<polygon points="3743.94,1228.07 3735.88,1229.34 3732.93,1236.94 3731.66,1228.88 3724.06,1225.93 3732.12,1224.66 3735.07,1217.06 3736.34,1225.12" fill="#f8b13a" />
<polygon points="3634.55,2059.27 3628.48,2057.30 3623.73,2061.55 3625.70,2055.48 3621.45,2050.73 3627.52,2052.70 3632.27,2048.45 3630.30,2054.52" fill="#c2c8d1" />
<polygon points="3321.56,2307.32 3316.05,2304.31 3310.68,2307.56 3313.69,2302.05 3310.44,2296.68 3315.95,2299.69 3321.32,2296.44 3318.31,2301.95" fill="#c2c8d1" />
<polygon points="2849.64,1363.12 2843.75,1362.07 2839.88,1366.64 2840.93,1360.75 2836.36,1356.88 2842.25,1357.93 2846.12,1353.36 2845.07,1359.25" fill="#c2c8d1" />
<polygon points="763.17,772.35 757.02,772.02 753.65,777.17 753.98,771.02 748.83,767.65 754.98,767.98 758.35,762.83 758.02,768.98" fill="#c2c8d1" />
<polygon points="2007.75,331.48 2002.12,331.74 1999.52,336.75 1999.26,331.12 1994.25,328.52 1999.88,328.26 2002.48,323.25 2002.74,328.88" fill="#c2c8d1" />
<polygon points="736.53,1764.66 730.46,1765.74 728.34,1771.53 727.26,1765.46 721.47,1763.34 727.54,1762.26 729.66,1756.47 730.74,1762.54" fill="#f8b13a" />
<polygon points="612.69,746.46 604.53,746.58 600.54,753.69 600.42,745.53 593.31,741.54 601.47,741.42 605.46,734.31 605.58,742.47" fill="#f8b13a" />
<polygon points="2866.51,2101.39 2861.30,2102.46 2859.61,2107.51 2858.54,2102.30 2853.49,2100.61 2858.70,2099.54 2860.39,2094.49 2861.46,2099.70" fill="#c2c8d1" />
<polygon points="1047.20,2564.72 1039.53,2561.95 1033.28,2567.20 1036.05,2559.53 1030.80,2553.28 1038.47,2556.05 1044.72,2550.80 1041.95,2558.47" fill="#f5a623" />
<polygon points="1695.28,916.72 1687.18,915.76 1682.28,922.28 1683.24,914.18 1676.72,909.28 1684.82,910.24 1689.72,903.72 1688.76,911.82" fill="#f5a623" />
<polygon points="650.88,1906.63 644.69,1905.23 640.37,1909.88 641.77,1903.69 637.12,1899.37 643.31,1900.77 647.63,1896.12 646.23,1902.31" fill="#c2c8d1" />
<polygon points="2240.51,2250.73 2234.23,2250.96 2231.27,2256.51 2231.04,2250.23 2225.49,2247.27 2231.77,2247.04 2234.73,2241.49 2234.96,2247.77" fill="#c2c8d1" />
<polygon points="370.05,1948.33 365.15,1945.99 360.67,1949.05 363.01,1944.15 359.95,1939.67 364.85,1942.01 369.33,1938.95 366.99,1943.85" fill="#c2c8d1" />
<polygon points="25.61,66.81 20.38,65.00 16.19,68.61 18.00,63.38 14.39,59.19 19.62,61.00 23.81,57.39 22.00,62.62" fill="#52796f" />
<polygon points="1124.04,455.77 1117.69,454.29 1113.23,459.04 1114.71,452.69 1109.96,448.23 1116.31,449.71 1120.77,444.96 1119.29,451.31" fill="#c2c8d1" />
<polygon points="802.44,1352.93 797.32,1350.99 793.07,1354.44 795.01,1349.32 791.56,1345.07 796.68,1347.01 800.93,1343.56 798.99,1348.68" fill="#c2c8d1" />
<polygon points="2207.82,289.23 2202.40,290.50 2200.77,295.82 2199.50,290.40 2194.18,288.77 2199.60,287.50 2201.23,282.18 2202.50,287.60" fill="#c2c8d1" />
<polygon points="2957.05,2222.17 2950.82,2221.17 2946.83,2226.05 2947.83,2219.82 2942.95,2215.83 2949.18,2216.83 2953.17,2211.95 2952.17,2218.18" fill="#c2c8d1" />
<polygon points="441.74,2491.27 433.58,2491.55 429.73,2498.74 429.45,2490.58 422.26,2486.73 430.42,2486.45 434.27,2479.26 434.55,2487.42" fill="#f5a623" />
<polygon points="899.57,1793.01 893.76,1792.03 889.99,1796.57 890.97,1790.76 886.43,1786.99 892.24,1787.97 896.01,1783.43 895.03,1789.24" fill="#f8b13a" />
<polygon points="204.82,927.68 199.30,928.59 197.32,933.82 196.41,928.30 191.18,926.32 196.70,925.41 198.68,920.18 199.59,925.70" fill="#f8b13a" />
<polygon points="2346.99,1408.18 2341.02,1407.95 2337.82,1412.99 2338.05,1407.02 2333.01,1403.82 2338.98,1404.05 2342.18,1399.01 2341.95,1404.98" fill="#f8b13a" />
<polygon points="1687.13,1144.42 1681.42,1145.60 1679.58,1151.13 1678.40,1145.42 1672.87,1143.58 1678.58,1142.40 1680.42,1136.87 1681.60,1142.58" fill="#f5a623" />
<polygon points="2020.08,133.30 2013.23,133.20 2009.70,139.08 2009.80,132.23 2003.92,128.70 2010.77,128.80 2014.30,122.92 2014.20,129.77" fill="#ef4444" />
<polygon points="3311.68,209.57 3305.30,209.96 3302.43,215.68 3302.04,209.30 3296.32,206.43 3302.70,206.04 3305.57,200.32 3305.96,206.70" fill="#c2c8d1" />
<polygon points="3509.88,1872.48 3503.93,1871.98 3500.52,1876.88 3501.02,1870.93 3496.12,1867.52 3502.07,1868.02 3505.48,1863.12 3504.98,1869.07" fill="#52796f" />
<polygon points="994.53,1264.22 986.70,1261.92 980.78,1267.53 983.08,1259.70 977.47,1253.78 985.30,1256.08 991.22,1250.47 988.92,1258.30" fill="#f5a623" />
<polygon points="1040.41,1781.26 1035.09,1781.63 1032.74,1786.41 1032.37,1781.09 1027.59,1778.74 1032.91,1778.37 1035.26,1773.59 1035.63,1778.91" fill="#c2c8d1" />
<polygon points="980.16,1494.05 975.24,1491.95 970.95,1495.16 973.05,1490.24 969.84,1485.95 974.76,1488.05 979.05,1484.84 976.95,1489.76" fill="#f8b13a" />
<polygon points="1936.85,85.54 1930.55,86.78 1928.46,92.85 1927.22,86.55 1921.15,84.46 1927.45,83.22 1929.54,77.15 1930.78,83.45" fill="#c2c8d1" />
<polygon points="541.49,1354.63 534.18,1350.99 527.37,1355.49 531.01,1348.18 526.51,1341.37 533.82,1345.01 540.63,1340.51 536.99,1347.82" fill="#f5a623" />
<polygon points="3050.36,1545.57 3045.23,1546.47 3043.43,1551.36 3042.53,1546.23 3037.64,1544.43 3042.77,1543.53 3044.57,1538.64 3045.47,1543.77" fill="#c2c8d1" />
<polygon points="3789.32,528.50 3783.23,528.87 3780.50,534.32 3780.13,528.23 3774.68,525.50 3780.77,525.13 3783.50,519.68 3783.87,525.77" fill="#f5a623" />
<polygon points="3451.00,546.36 3442.99,544.83 3437.64,551.00 3439.17,542.99 3433.00,537.64 3441.01,539.17 3446.36,533.00 3444.83,541.01" fill="#f5a623" />
<polygon points="2856.32,2538.72 2850.34,2536.34 2845.28,2540.32 2847.66,2534.34 2843.68,2529.28 2849.66,2531.66 2854.72,2527.68 2852.34,2533.66" fill="#c2c8d1" />
<polygon points="2362.37,1997.79 2354.82,1999.15 2352.21,2006.37 2350.85,1998.82 2343.63,1996.21 2351.18,1994.85 2353.79,1987.63 2355.15,1995.18" fill="#52796f" />
<polygon points="2411.99,2481.73 2405.90,2481.06 2402.27,2485.99 2402.94,2479.90 2398.01,2476.27 2404.10,2476.94 2407.73,2472.01 2407.06,2478.10" fill="#c2c8d1" />
<polygon points="2738.48,281.20 2733.33,282.42 2731.80,287.48 2730.58,282.33 2725.52,280.80 2730.67,279.58 2732.20,274.52 2733.42,279.67" fill="#52796f" />
<polygon points="3046.89,673.36 3040.60,674.75 3038.64,680.89 3037.25,674.60 3031.11,672.64 3037.40,671.25 3039.36,665.11 3040.75,671.40" fill="#c2c8d1" />
<polygon points="1081.12,864.09 1073.07,862.80 1067.91,869.12 1069.20,861.07 1062.88,855.91 1070.93,857.20 1076.09,850.88 1074.80,858.93" fill="#f5a623" />
<polygon points="2099.50,667.35 2094.24,665.09 2089.65,668.50 2091.91,663.24 2088.50,658.65 2093.76,660.91 2098.35,657.50 2096.09,662.76" fill="#c2c8d1" />
<polygon points="3607.61,2464.54 3601.29,2464.94 3598.46,2470.61 3598.06,2464.29 3592.39,2461.46 3598.71,2461.06 3601.54,2455.39 3601.94,2461.71" fill="#c2c8d1" />
<polygon points="1444.94,85.50 1440.09,83.00 1435.50,85.94 1438.00,81.09 1435.06,76.50 1439.91,79.00 1444.50,76.06 1442.00,80.91" fill="#c2c8d1" />
<polygon points="2152.30,2292.70 2146.19,2292.91 2143.30,2298.30 2143.09,2292.19 2137.70,2289.30 2143.81,2289.09 2146.70,2283.70 2146.91,2289.81" fill="#c2c8d1" />
<polygon points="654.86,867.68 646.73,868.45 643.32,875.86 642.55,867.73 635.14,864.32 643.27,863.55 646.68,856.14 647.45,864.27" fill="#f8b13a" />
<polygon points="681.93,1527.01 677.20,1524.90 672.99,1527.93 675.10,1523.20 672.07,1518.99 676.80,1521.10 681.01,1518.07 678.90,1522.80" fill="#f8b13a" />
<polygon points="3429.67,695.54 3421.51,695.59 3417.46,702.67 3417.41,694.51 3410.33,690.46 3418.49,690.41 3422.54,683.33 3422.59,691.49" fill="#f5a623" />
<polygon points="1697.67,1405.98 1689.78,1403.90 1684.02,1409.67 1686.10,1401.78 1680.33,1396.02 1688.22,1398.10 1693.98,1392.33 1691.90,1400.22" fill="#f8b13a" />
<polygon points="3199.53,764.73 3194.02,764.75 3191.27,769.53 3191.25,764.02 3186.47,761.27 3191.98,761.25 3194.73,756.47 3194.75,761.98" fill="#f8b13a" />
<polygon points="181.72,2048.33 176.72,2047.71 173.67,2051.72 174.29,2046.72 170.28,2043.67 175.28,2044.29 178.33,2040.28 177.71,2045.28" fill="#c2c8d1" />
<polygon points="1449.75,2506.36 1444.29,2504.15 1439.64,2507.75 1441.85,2502.29 1438.25,2497.64 1443.71,2499.85 1448.36,2496.25 1446.15,2501.71" fill="#c2c8d1" />
<polygon points="1389.18,2550.67 1372.86,2550.27 1364.33,2564.18 1364.73,2547.86 1350.82,2539.33 1367.14,2539.73 1375.67,2525.82 1375.27,2542.14" fill="#f5a623" />
<polygon points="292.31,31.93 286.14,31.96 283.07,37.31 283.04,31.14 277.69,28.07 283.86,28.04 286.93,22.69 286.96,28.86" fill="#52796f" />
<polygon points="1809.36,1876.90 1803.73,1875.97 1800.10,1880.36 1801.03,1874.73 1796.64,1871.10 1802.27,1872.03 1805.90,1867.64 1804.97,1873.27" fill="#f5a623" />
<polygon points="2539.13,2395.36 2534.16,2393.01 2529.64,2396.13 2531.99,2391.16 2528.87,2386.64 2533.84,2388.99 2538.36,2385.87 2536.01,2390.84" fill="#c2c8d1" />
<polygon points="2166.74,1641.49 2160.11,1641.17 2156.51,1646.74 2156.83,1640.11 2151.26,1636.51 2157.89,1636.83 2161.49,1631.26 2161.17,1637.89" fill="#ef4444" />
<polygon points="3090.71,1617.07 3074.47,1615.47 3064.93,1628.71 3066.53,1612.47 3053.29,1602.93 3069.53,1604.53 3079.07,1591.29 3077.47,1607.53" fill="#f5a623" />
<polygon points="1475.90,530.41 1471.10,527.97 1466.59,530.90 1469.03,526.10 1466.10,521.59 1470.90,524.03 1475.41,521.10 1472.97,525.90" fill="#c2c8d1" />
<polygon points="937.30,2014.93 929.72,2012.81 924.07,2018.30 926.19,2010.72 920.70,2005.07 928.28,2007.19 933.93,2001.70 931.81,2009.28" fill="#52796f" />
<polygon points="3525.50,1482.98 3519.17,1483.01 3516.02,1488.50 3515.99,1482.17 3510.50,1479.02 3516.83,1478.99 3519.98,1473.50 3520.01,1479.83" fill="#c2c8d1" />
<polygon points="1174.15,2302.67 1168.53,2301.08 1164.33,2305.15 1165.92,2299.53 1161.85,2295.33 1167.47,2296.92 1171.67,2292.85 1170.08,2298.47" fill="#c2c8d1" />
<polygon points="116.10,2516.94 99.79,2516.31 91.06,2530.10 91.69,2513.79 77.90,2505.06 94.21,2505.69 102.94,2491.90 102.31,2508.21" fill="#f5a623" />
<polygon points="913.09,213.28 907.81,212.78 904.72,217.09 905.22,211.81 900.91,208.72 906.19,209.22 909.28,204.91 908.78,210.19" fill="#52796f" />
<polygon points="1854.80,1023.39 1850.09,1020.95 1845.61,1023.80 1848.05,1019.09 1845.20,1014.61 1849.91,1017.05 1854.39,1014.20 1851.95,1018.91" fill="#c2c8d1" />
<polygon points="2717.43,1595.32 2712.08,1595.64 2709.68,1600.43 2709.36,1595.08 2704.57,1592.68 2709.92,1592.36 2712.32,1587.57 2712.64,1592.92" fill="#c2c8d1" />
<polygon points="324.33,1987.06 317.91,1986.20 313.94,1991.33 314.80,1984.91 309.67,1980.94 316.09,1981.80 320.06,1976.67 319.20,1983.09" fill="#c2c8d1" />
<polygon points="23.80,2426.11 17.57,2424.31 12.89,2428.80 14.69,2422.57 10.20,2417.89 16.43,2419.69 21.11,2415.20 19.31,2421.43" fill="#c2c8d1" />
<polygon points="3669.67,925.95 3665.15,923.83 3661.05,926.67 3663.17,922.15 3660.33,918.05 3664.85,920.17 3668.95,917.33 3666.83,921.85" fill="#ef4444" />
<polygon points="1679.91,2348.37 1671.81,2349.39 1668.63,2356.91 1667.61,2348.81 1660.09,2345.63 1668.19,2344.61 1671.37,2337.09 1672.39,2345.19" fill="#f8b13a" />
<polygon points="2027.96,2006.56 2022.36,2007.60 2020.44,2012.96 2019.40,2007.36 2014.04,2005.44 2019.64,2004.40 2021.56,1999.04 2022.60,2004.64" fill="#c2c8d1" />
<polygon points="3236.92,1157.49 3220.64,1156.39 3211.51,1169.92 3212.61,1153.64 3199.08,1144.51 3215.36,1145.61 3224.49,1132.08 3223.39,1148.36" fill="#f5a623" />
<polygon points="1246.83,1758.44 1241.08,1755.39 1235.56,1758.83 1238.61,1753.08 1235.17,1747.56 1240.92,1750.61 1246.44,1747.17 1243.39,1752.92" fill="#c2c8d1" />
<polygon points="3118.84,1776.68 3112.88,1776.02 3109.32,1780.84 3109.98,1774.88 3105.16,1771.32 3111.12,1771.98 3114.68,1767.16 3114.02,1773.12" fill="#c2c8d1" />
<polygon points="353.40,648.76 338.56,641.97 325.24,651.40 332.03,636.56 322.60,623.24 337.44,630.03 350.76,620.60 343.97,635.44" fill="#f5a623" />
<polygon points="3462.38,361.31 3456.44,359.27 3451.69,363.38 3453.73,357.44 3449.62,352.69 3455.56,354.73 3460.31,350.62 3458.27,356.56" fill="#f8b13a" />
<polygon points="3136.20,351.22 3130.63,350.00 3126.78,354.20 3128.00,348.63 3123.80,344.78 3129.37,346.00 3133.22,341.80 3132.00,347.37" fill="#c2c8d1" />
<polygon points="84.64,1864.46 77.25,1860.99 70.54,1865.64 74.01,1858.25 69.36,1851.54 76.75,1855.01 83.46,1850.36 79.99,1857.75" fill="#f8b13a" />
<polygon points="874.25,345.15 868.29,345.78 865.85,351.25 865.22,345.29 859.75,342.85 865.71,342.22 868.15,336.75 868.78,342.71" fill="#c2c8d1" />
<polygon points="2559.96,1109.45 2551.96,1107.84 2546.55,1113.96 2548.16,1105.96 2542.04,1100.55 2550.04,1102.16 2555.45,1096.04 2553.84,1104.04" fill="#f8b13a" />
<polygon points="221.72,191.58 215.67,190.18 211.42,194.72 212.82,188.67 208.28,184.42 214.33,185.82 218.58,181.28 217.18,187.33" fill="#c2c8d1" />
<polygon points="326.63,1680.27 321.29,1678.10 316.73,1681.63 318.90,1676.29 315.37,1671.73 320.71,1673.90 325.27,1670.37 323.10,1675.71" fill="#c2c8d1" />
<polygon points="3133.87,1528.43 3128.73,1527.76 3125.57,1531.87 3126.24,1526.73 3122.13,1523.57 3127.27,1524.24 3130.43,1520.13 3129.76,1525.27" fill="#c2c8d1" />
<polygon points="725.77,69.14 717.62,69.53 713.86,76.77 713.47,68.62 706.23,64.86 714.38,64.47 718.14,57.23 718.53,65.38" fill="#f8b13a" />
<polygon points="142.65,1294.15 137.53,1292.87 133.85,1296.65 135.13,1291.53 131.35,1287.85 136.47,1289.13 140.15,1285.35 138.87,1290.47" fill="#c2c8d1" />
<polygon points="396.91,1768.80 391.30,1769.64 389.20,1774.91 388.36,1769.30 383.09,1767.20 388.70,1766.36 390.80,1761.09 391.64,1766.70" fill="#c2c8d1" />
<polygon points="1130.05,2313.55 1124.95,2313.61 1122.45,2318.05 1122.39,2312.95 1117.95,2310.45 1123.05,2310.39 1125.55,2305.95 1125.61,2311.05" fill="#c2c8d1" />
<polygon points="1279.06,1133.08 1273.84,1132.73 1270.92,1137.06 1271.27,1131.84 1266.94,1128.92 1272.16,1129.27 1275.08,1124.94 1274.73,1130.16" fill="#52796f" />
<polygon points="3607.00,1592.29 3599.06,1594.18 3596.71,1602.00 3594.82,1594.06 3587.00,1591.71 3594.94,1589.82 3597.29,1582.00 3599.18,1589.94" fill="#f5a623" />
<polygon points="2377.66,2365.84 2373.17,2363.80 2369.16,2366.66 2371.20,2362.17 2368.34,2358.16 2372.83,2360.20 2376.84,2357.34 2374.80,2361.83" fill="#c2c8d1" />
<polygon points="2236.22,423.23 2229.85,422.22 2225.77,427.22 2226.78,420.85 2221.78,416.77 2228.15,417.78 2232.23,412.78 2231.22,419.15" fill="#c2c8d1" />
<polygon points="2883.29,625.98 2877.70,624.97 2874.02,629.29 2875.03,623.70 2870.71,620.02 2876.30,621.03 2879.98,616.71 2878.97,622.30" fill="#c2c8d1" />
<polygon points="1340.54,688.00 1332.39,687.66 1328.00,694.54 1328.34,686.39 1321.46,682.00 1329.61,682.34 1334.00,675.46 1333.66,683.61" fill="#f8b13a" />
<polygon points="793.48,1624.61 788.25,1625.50 786.39,1630.48 785.50,1625.25 780.52,1623.39 785.75,1622.50 787.61,1617.52 788.50,1622.75" fill="#ef4444" />
<polygon points="2611.30,250.11 2604.89,249.21 2600.89,254.30 2601.79,247.89 2596.70,243.89 2603.11,244.79 2607.11,239.70 2606.21,246.11" fill="#c2c8d1" />
<polygon points="2686.27,2076.63 2680.41,2077.68 2678.37,2083.27 2677.32,2077.41 2671.73,2075.37 2677.59,2074.32 2679.63,2068.73 2680.68,2074.59" fill="#c2c8d1" />
<polygon points="1328.82,1285.62 1321.74,1287.00 1319.38,1293.82 1318.00,1286.74 1311.18,1284.38 1318.26,1283.00 1320.62,1276.18 1322.00,1283.26" fill="#52796f" />
<polygon points="2792.00,1038.14 2784.09,1040.15 2781.86,1048.00 2779.85,1040.09 2772.00,1037.86 2779.91,1035.85 2782.14,1028.00 2784.15,1035.91" fill="#f5a623" />
<polygon points="2056.89,1322.47 2048.79,1323.41 2045.53,1330.89 2044.59,1322.79 2037.11,1319.53 2045.21,1318.59 2048.47,1311.11 2049.41,1319.21" fill="#f8b13a" />
<polygon points="2903.87,2470.17 2896.36,2466.98 2889.83,2471.87 2893.02,2464.36 2888.13,2457.83 2895.64,2461.02 2902.17,2456.13 2898.98,2463.64" fill="#c2c8d1" />
<polygon points="3488.07,457.02 3482.22,454.35 3476.98,458.07 3479.65,452.22 3475.93,446.98 3481.78,449.65 3487.02,445.93 3484.35,451.78" fill="#c2c8d1" />
<polygon points="3624.77,1644.11 3616.63,1644.52 3612.89,1651.77 3612.48,1643.63 3605.23,1639.89 3613.37,1639.48 3617.11,1632.23 3617.52,1640.37" fill="#c2c8d1" />
<polygon points="1212.65,596.01 1207.14,593.26 1201.99,596.65 1204.74,591.14 1201.35,585.99 1206.86,588.74 1212.01,585.35 1209.26,590.86" fill="#c2c8d1" />
<polygon points="1826.24,1449.69 1819.96,1449.11 1816.31,1454.24 1816.89,1447.96 1811.76,1444.31 1818.04,1444.89 1821.69,1439.76 1821.11,1446.04" fill="#c2c8d1" />
<polygon points="1624.15,129.75 1618.93,129.68 1616.25,134.15 1616.32,128.93 1611.85,126.25 1617.07,126.32 1619.75,121.85 1619.68,127.07" fill="#c2c8d1" />
<polygon points="3481.30,2449.67 3473.19,2448.75 3468.33,2455.30 3469.25,2447.19 3462.70,2442.33 3470.81,2443.25 3475.67,2436.70 3474.75,2444.81" fill="#f5a623" />
<polygon points="59.16,2513.08 53.29,2513.75 50.92,2519.16 50.25,2513.29 44.84,2510.92 50.71,2510.25 53.08,2504.84 53.75,2510.71" fill="#c2c8d1" />
<polygon points="1138.61,2116.23 1133.08,2113.30 1127.77,2116.61 1130.70,2111.08 1127.39,2105.77 1132.92,2108.70 1138.23,2105.39 1135.30,2110.92" fill="#c2c8d1" />
<polygon points="1411.93,1130.22 1403.85,1131.36 1400.78,1138.93 1399.64,1130.85 1392.07,1127.78 1400.15,1126.64 1403.22,1119.07 1404.36,1127.15" fill="#f5a623" />
<polygon points="109.28,965.46 103.81,964.85 100.54,969.28 101.15,963.81 96.72,960.54 102.19,961.15 105.46,956.72 104.85,962.19" fill="#f8b13a" />
<polygon points="3747.97,1176.12 3743.18,1173.93 3738.88,1176.97 3741.07,1172.18 3738.03,1167.88 3742.82,1170.07 3747.12,1167.03 3744.93,1171.82" fill="#c2c8d1" />
<polygon points="1152.35,1443.78 1145.12,1440.00 1138.22,1444.35 1142.00,1437.12 1137.65,1430.22 1144.88,1434.00 1151.78,1429.65 1148.00,1436.88" fill="#f8b13a" />
<polygon points="335.96,419.43 327.96,417.84 322.57,423.96 324.16,415.96 318.04,410.57 326.04,412.16 331.43,406.04 329.84,414.04" fill="#f5a623" />
<polygon points="920.37,833.50 915.24,834.46 913.50,839.37 912.54,834.24 907.63,832.50 912.76,831.54 914.50,826.63 915.46,831.76" fill="#52796f" />
<polygon points="591.97,1089.83 583.94,1091.29 581.17,1098.97 579.71,1090.94 572.03,1088.17 580.06,1086.71 582.83,1079.03 584.29,1087.06" fill="#f8b13a" />
<polygon points="1572.33,11.03 1566.91,10.77 1563.97,15.33 1564.23,9.91 1559.67,6.97 1565.09,7.23 1568.03,2.67 1567.77,8.09" fill="#c2c8d1" />
<polygon points="1142.57,836.71 1137.24,837.54 1135.29,842.57 1134.46,837.24 1129.43,835.29 1134.76,834.46 1136.71,829.43 1137.54,834.76" fill="#c2c8d1" />
<polygon points="1426.22,773.14 1420.87,772.77 1417.86,777.22 1418.23,771.87 1413.78,768.86 1419.13,769.23 1422.14,764.78 1421.77,770.13" fill="#52796f" />
<polygon points="2756.21,2404.96 2750.33,2405.73 2748.04,2411.21 2747.27,2405.33 2741.79,2403.04 2747.67,2402.27 2749.96,2396.79 2750.73,2402.67" fill="#c2c8d1" />
<polygon points="2180.45,2416.25 2174.53,2417.63 2172.75,2423.45 2171.37,2417.53 2165.55,2415.75 2171.47,2414.37 2173.25,2408.55 2174.63,2414.47" fill="#c2c8d1" />
<polygon points="1955.83,1072.81 1947.70,1073.47 1944.19,1080.83 1943.53,1072.70 1936.17,1069.19 1944.30,1068.53 1947.81,1061.17 1948.47,1069.30" fill="#f8b13a" />
<polygon points="361.64,756.67 356.63,755.76 353.33,759.64 354.24,754.63 350.36,751.33 355.37,752.24 358.67,748.36 357.76,753.37" fill="#c2c8d1" />
<polygon points="3094.92,1016.79 3078.85,1019.61 3073.21,1034.92 3070.39,1018.85 3055.08,1013.21 3071.15,1010.39 3076.79,995.08 3079.61,1011.15" fill="#f5a623" />
<polygon points="1516.52,2388.75 1511.59,2387.75 1508.25,2391.52 1509.25,2386.59 1505.48,2383.25 1510.41,2384.25 1513.75,2380.48 1512.75,2385.41" fill="#c2c8d1" />
<polygon points="806.52,1712.06 798.37,1711.67 793.94,1718.52 794.33,1710.37 787.48,1705.94 795.63,1706.33 800.06,1699.48 799.67,1707.63" fill="#f8b13a" />
<polygon points="2074.07,2505.54 2069.17,2506.40 2067.46,2511.07 2066.60,2506.17 2061.93,2504.46 2066.83,2503.60 2068.54,2498.93 2069.40,2503.83" fill="#c2c8d1" />
<polygon points="1441.66,1426.42 1434.26,1422.99 1427.58,1427.66 1431.01,1420.26 1426.34,1413.58 1433.74,1417.01 1440.42,1412.34 1436.99,1419.74" fill="#f5a623" />
<polygon points="738.77,2290.89 733.82,2290.63 731.11,2294.77 731.37,2289.82 727.23,2287.11 732.18,2287.37 734.89,2283.23 734.63,2288.18" fill="#c2c8d1" />
<polygon points="3674.65,1386.20 3670.09,1383.88 3665.80,1386.65 3668.12,1382.09 3665.35,1377.80 3669.91,1380.12 3674.20,1377.35 3671.88,1381.91" fill="#f8b13a" />
<polygon points="3497.83,1218.70 3489.87,1216.87 3484.30,1222.83 3486.13,1214.87 3480.17,1209.30 3488.13,1211.13 3493.70,1205.17 3491.87,1213.13" fill="#f8b13a" />
<polygon points="2000.36,898.63 1994.00,898.12 1990.37,903.36 1990.88,897.00 1985.64,893.37 1992.00,893.88 1995.63,888.64 1995.12,895.00" fill="#52796f" />
<polygon points="421.19,1492.24 414.84,1491.21 410.76,1496.19 411.79,1489.84 406.81,1485.76 413.16,1486.79 417.24,1481.81 416.21,1488.16" fill="#c2c8d1" />
<polygon points="2540.18,1217.70 2535.10,1215.09 2530.30,1218.18 2532.91,1213.10 2529.82,1208.30 2534.90,1210.91 2539.70,1207.82 2537.09,1212.90" fill="#c2c8d1" />
<polygon points="1027.54,1001.46 1021.50,1002.70 1019.54,1008.54 1018.30,1002.50 1012.46,1000.54 1018.50,999.30 1020.46,993.46 1021.70,999.50" fill="#c2c8d1" />
<polygon points="257.37,1411.64 251.43,1412.70 249.36,1418.37 248.30,1412.43 242.63,1410.36 248.57,1409.30 250.64,1403.63 251.70,1409.57" fill="#c2c8d1" />
<polygon points="1515.92,1775.75 1509.88,1775.05 1506.25,1779.92 1506.95,1773.88 1502.08,1770.25 1508.12,1770.95 1511.75,1766.08 1511.05,1772.12" fill="#c2c8d1" />
<polygon points="103.60,1798.51 98.65,1797.72 95.49,1801.60 96.28,1796.65 92.40,1793.49 97.35,1794.28 100.51,1790.40 99.72,1795.35" fill="#f8b13a" />
<polygon points="1356.15,847.80 1350.50,846.11 1346.20,850.15 1347.89,844.50 1343.85,840.20 1349.50,841.89 1353.80,837.85 1352.11,843.50" fill="#c2c8d1" />
<polygon points="1154.18,2057.32 1147.45,2058.01 1144.68,2064.18 1143.99,2057.45 1137.82,2054.68 1144.55,2053.99 1147.32,2047.82 1148.01,2054.55" fill="#ef4444" />
<polygon points="1917.06,2163.50 1911.33,2161.24 1906.50,2165.06 1908.76,2159.33 1904.94,2154.50 1910.67,2156.76 1915.50,2152.94 1913.24,2158.67" fill="#c2c8d1" />
<polygon points="3218.47,1794.01 3213.10,1791.22 3207.99,1794.47 3210.78,1789.10 3207.53,1783.99 3212.90,1786.78 3218.01,1783.53 3215.22,1788.90" fill="#c2c8d1" />
<polygon points="2651.23,1722.96 2646.06,1720.16 2641.04,1723.23 2643.84,1718.06 2640.77,1713.04 2645.94,1715.84 2650.96,1712.77 2648.16,1717.94" fill="#c2c8d1" />
<polygon points="872.08,233.69 867.14,234.44 865.31,239.08 864.56,234.14 859.92,232.31 864.86,231.56 866.69,226.92 867.44,231.86" fill="#c2c8d1" />
<polygon points="1612.07,1846.21 1605.82,1845.18 1601.79,1850.07 1602.82,1843.82 1597.93,1839.79 1604.18,1840.82 1608.21,1835.93 1607.18,1842.18" fill="#f8b13a" />
<polygon points="1731.24,909.08 1725.46,907.19 1720.92,911.24 1722.81,905.46 1718.76,900.92 1724.54,902.81 1729.08,898.76 1727.19,904.54" fill="#c2c8d1" />
<polygon points="2460.46,321.31 2454.31,321.86 2451.69,327.46 2451.14,321.31 2445.54,318.69 2451.69,318.14 2454.31,312.54 2454.86,318.69" fill="#c2c8d1" />
<polygon points="2303.60,584.50 2296.23,580.99 2289.50,585.60 2293.01,578.23 2288.40,571.50 2295.77,575.01 2302.50,570.40 2298.99,577.77" fill="#f8b13a" />
<polygon points="3321.15,305.06 3316.29,306.32 3314.94,311.15 3313.68,306.29 3308.85,304.94 3313.71,303.68 3315.06,298.85 3316.32,303.71" fill="#c2c8d1" />
<polygon points="3152.28,1345.86 3147.51,1344.73 3144.14,1348.28 3145.27,1343.51 3141.72,1340.14 3146.49,1341.27 3149.86,1337.72 3148.73,1342.49" fill="#c2c8d1" />
<polygon points="636.63,1494.02 630.55,1492.26 625.98,1496.63 627.74,1490.55 623.37,1485.98 629.45,1487.74 634.02,1483.37 632.26,1489.45" fill="#c2c8d1" />
<polygon points="199.09,72.05 192.01,68.00 184.95,72.09 189.00,65.01 184.91,57.95 191.99,62.00 199.05,57.91 195.00,64.99" fill="#f8b13a" />
<polygon points="2749.45,179.20 2743.90,178.83 2740.80,183.45 2741.17,177.90 2736.55,174.80 2742.10,175.17 2745.20,170.55 2744.83,176.10" fill="#c2c8d1" />
<polygon points="3060.83,138.85 3052.69,139.48 3049.15,146.83 3048.52,138.69 3041.17,135.15 3049.31,134.52 3052.85,127.17 3053.48,135.31" fill="#f8b13a" />
<polygon points="3590.93,2276.22 3582.85,2277.36 3579.78,2284.93 3578.64,2276.85 3571.07,2273.78 3579.15,2272.64 3582.22,2265.07 3583.36,2273.15" fill="#f8b13a" />
<polygon points="2949.96,2280.07 2943.67,2281.70 2941.93,2287.96 2940.30,2281.67 2934.04,2279.93 2940.33,2278.30 2942.07,2272.04 2943.70,2278.33" fill="#f5a623" />
<polygon points="2063.05,65.39 2058.14,63.00 2053.61,66.05 2056.00,61.14 2052.95,56.61 2057.86,59.00 2062.39,55.95 2060.00,60.86" fill="#c2c8d1" />
<polygon points="2906.75,1800.58 2901.67,1799.77 2898.42,1803.75 2899.23,1798.67 2895.25,1795.42 2900.33,1796.23 2903.58,1792.25 2902.77,1797.33" fill="#c2c8d1" />
<polygon points="758.40,1151.63 753.16,1149.13 748.37,1152.40 750.87,1147.16 747.60,1142.37 752.84,1144.87 757.63,1141.60 755.13,1146.84" fill="#c2c8d1" />
<polygon points="2985.78,952.29 2978.32,948.98 2971.71,953.78 2975.02,946.32 2970.22,939.71 2977.68,943.02 2984.29,938.22 2980.98,945.68" fill="#f5a623" />
<polygon points="3611.51,339.75 3603.65,340.39 3600.25,347.51 3599.61,339.65 3592.49,336.25 3600.35,335.61 3603.75,328.49 3604.39,336.35" fill="#52796f" />
<polygon points="872.31,1366.91 867.09,1364.17 862.09,1367.31 864.83,1362.09 861.69,1357.09 866.91,1359.83 871.91,1356.69 869.17,1361.91" fill="#c2c8d1" />
<polygon points="871.60,1713.11 866.53,1711.85 862.89,1715.60 864.15,1710.53 860.40,1706.89 865.47,1708.15 869.11,1704.40 867.85,1709.47" fill="#c2c8d1" />
<polygon points="918.11,1559.44 912.57,1558.03 908.56,1562.11 909.97,1556.57 905.89,1552.56 911.43,1553.97 915.44,1549.89 914.03,1555.43" fill="#f8b13a" />
<polygon points="2813.70,294.94 2805.80,292.89 2800.06,298.70 2802.11,290.80 2796.30,285.06 2804.20,287.11 2809.94,281.30 2807.89,289.20" fill="#f5a623" />
<polygon points="222.97,316.76 214.95,318.28 212.24,325.97 210.72,317.95 203.03,315.24 211.05,313.72 213.76,306.03 215.28,314.05" fill="#c2c8d1" />
<polygon points="3344.48,1432.61 3339.25,1433.50 3337.39,1438.48 3336.50,1433.25 3331.52,1431.39 3336.75,1430.50 3338.61,1425.52 3339.50,1430.75" fill="#c2c8d1" />
<polygon points="1255.46,2194.38 1250.08,2194.66 1247.62,2199.46 1247.34,2194.08 1242.54,2191.62 1247.92,2191.34 1250.38,2186.54 1250.66,2191.92" fill="#c2c8d1" />
<polygon points="2933.29,1630.83 2927.94,1630.72 2925.17,1635.29 2925.28,1629.94 2920.71,1627.17 2926.06,1627.28 2928.83,1622.71 2928.72,1628.06" fill="#c2c8d1" />
<polygon points="3467.32,1971.63 3459.21,1970.75 3454.37,1977.32 3455.25,1969.21 3448.68,1964.37 3456.79,1965.25 3461.63,1958.68 3460.75,1966.79" fill="#f5a623" />
<polygon points="2945.98,989.58 2938.00,991.24 2935.42,998.98 2933.76,991.00 2926.02,988.42 2934.00,986.76 2936.58,979.02 2938.24,987.00" fill="#f5a623" />
<polygon points="1456.91,1918.46 1452.10,1915.99 1447.54,1918.91 1450.01,1914.10 1447.09,1909.54 1451.90,1912.01 1456.46,1909.09 1453.99,1913.90" fill="#c2c8d1" />
<polygon points="3342.44,1387.05 3336.14,1387.01 3332.95,1392.44 3332.99,1386.14 3327.56,1382.95 3333.86,1382.99 3337.05,1377.56 3337.01,1383.86" fill="#f5a623" />
<polygon points="2437.71,976.92 2429.80,974.89 2424.08,980.71 2426.11,972.80 2420.29,967.08 2428.20,969.11 2433.92,963.29 2431.89,971.20" fill="#f5a623" />
<polygon points="2099.82,2552.80 2094.28,2553.62 2092.20,2558.82 2091.38,2553.28 2086.18,2551.20 2091.72,2550.38 2093.80,2545.18 2094.62,2550.72" fill="#52796f" />
<polygon points="2087.25,2252.71 2081.33,2250.33 2076.29,2254.25 2078.67,2248.33 2074.75,2243.29 2080.67,2245.67 2085.71,2241.75 2083.33,2247.67" fill="#c2c8d1" />
<polygon points="520.89,1656.14 513.37,1652.98 506.86,1657.89 510.02,1650.37 505.11,1643.86 512.63,1647.02 519.14,1642.11 515.98,1649.63" fill="#f5a623" />
<polygon points="3196.00,1843.37 3187.98,1841.83 3182.63,1848.00 3184.17,1839.98 3178.00,1834.63 3186.02,1836.17 3191.37,1830.00 3189.83,1838.02" fill="#f8b13a" />
<polygon points="2589.62,579.22 2584.51,577.88 2580.78,581.62 2582.12,576.51 2578.38,572.78 2583.49,574.12 2587.22,570.38 2585.88,575.49" fill="#52796f" />
<polygon points="3153.35,548.04 3148.49,546.78 3144.96,550.35 3146.22,545.49 3142.65,541.96 3147.51,543.22 3151.04,539.65 3149.78,544.51" fill="#c2c8d1" />
<polygon points="2638.62,901.85 2633.38,900.01 2629.15,903.62 2630.99,898.38 2627.38,894.15 2632.62,895.99 2636.85,892.38 2635.01,897.62" fill="#f8b13a" />
<polygon points="1955.56,1811.99 1950.54,1810.81 1947.01,1814.56 1948.19,1809.54 1944.44,1806.01 1949.46,1807.19 1952.99,1803.44 1951.81,1808.46" fill="#c2c8d1" />
<polygon points="1988.66,754.58 1980.50,754.60 1976.42,761.66 1976.40,753.50 1969.34,749.42 1977.50,749.40 1981.58,742.34 1981.60,750.50" fill="#f5a623" />
<polygon points="3289.63,886.38 3284.05,883.34 3278.62,886.63 3281.66,881.05 3278.37,875.62 3283.95,878.66 3289.38,875.37 3286.34,880.95" fill="#c2c8d1" />
<polygon points="2294.10,2274.10 2289.06,2274.53 2286.90,2279.10 2286.47,2274.06 2281.90,2271.90 2286.94,2271.47 2289.10,2266.90 2289.53,2271.94" fill="#c2c8d1" />
<polygon points="2852.46,1928.80 2847.56,1927.75 2844.20,1931.46 2845.25,1926.56 2841.54,1923.20 2846.44,1924.25 2849.80,1920.54 2848.75,1925.44" fill="#c2c8d1" />
<polygon points="331.89,1139.18 326.79,1138.71 323.82,1142.89 324.29,1137.79 320.11,1134.82 325.21,1135.29 328.18,1131.11 327.71,1136.21" fill="#c2c8d1" />
<polygon points="2401.08,298.90 2395.31,299.69 2393.10,305.08 2392.31,299.31 2386.92,297.10 2392.69,296.31 2394.90,290.92 2395.69,296.69" fill="#c2c8d1" />
<polygon points="3023.63,331.52 3019.02,328.94 3014.48,331.63 3017.06,327.02 3014.37,322.48 3018.98,325.06 3023.52,322.37 3020.94,326.98" fill="#c2c8d1" />
<polygon points="1509.46,786.26 1503.89,785.85 1500.74,790.46 1501.15,784.89 1496.54,781.74 1502.11,782.15 1505.26,777.54 1504.85,783.11" fill="#f8b13a" />
<polygon points="2981.03,2401.27 2974.01,2400.40 2969.73,2406.03 2970.60,2399.01 2964.97,2394.73 2971.99,2395.60 2976.27,2389.97 2975.40,2396.99" fill="#ef4444" />
<polygon points="2027.66,1612.52 2021.52,1613.73 2019.48,1619.66 2018.27,1613.52 2012.34,1611.48 2018.48,1610.27 2020.52,1604.34 2021.73,1610.48" fill="#c2c8d1" />
<polygon points="2534.81,1961.64 2528.67,1960.22 2524.36,1964.81 2525.78,1958.67 2521.19,1954.36 2527.33,1955.78 2531.64,1951.19 2530.22,1957.33" fill="#c2c8d1" />
<polygon points="2100.96,401.92 2092.92,403.31 2090.08,410.96 2088.69,402.92 2081.04,400.08 2089.08,398.69 2091.92,391.04 2093.31,399.08" fill="#f5a623" />
<polygon points="656.99,121.33 649.05,123.19 646.67,130.99 644.81,123.05 637.01,120.67 644.95,118.81 647.33,111.01 649.19,118.95" fill="#f5a623" />
<polygon points="1418.27,1739.22 1413.22,1737.01 1408.78,1740.27 1410.99,1735.22 1407.73,1730.78 1412.78,1732.99 1417.22,1729.73 1415.01,1734.78" fill="#c2c8d1" />
<polygon points="3431.86,650.68 3423.74,651.45 3420.32,658.86 3419.55,650.74 3412.14,647.32 3420.26,646.55 3423.68,639.14 3424.45,647.26" fill="#f8b13a" />
<polygon points="2241.88,1384.28 2235.98,1383.94 2232.72,1388.88 2233.06,1382.98 2228.12,1379.72 2234.02,1380.06 2237.28,1375.12 2236.94,1381.02" fill="#c2c8d1" />
<polygon points="3827.25,2134.88 3819.35,2134.57 3815.12,2141.25 3815.43,2133.35 3808.75,2129.12 3816.65,2129.43 3820.88,2122.75 3820.57,2130.65" fill="#ef4444" />
<polygon points="641.04,1817.22 635.23,1817.75 632.78,1823.04 632.25,1817.23 626.96,1814.78 632.77,1814.25 635.22,1808.96 635.75,1814.77" fill="#c2c8d1" />
<polygon points="2018.75,2403.32 2011.30,2399.98 2004.68,2404.75 2008.02,2397.30 2003.25,2390.68 2010.70,2394.02 2017.32,2389.25 2013.98,2396.70" fill="#f8b13a" />
<polygon points="1441.96,620.85 1433.93,622.29 1431.15,629.96 1429.71,621.93 1422.04,619.15 1430.07,617.71 1432.85,610.04 1434.29,618.07" fill="#f5a623" />
<polygon points="3624.48,732.07 3619.15,732.60 3616.93,737.48 3616.40,732.15 3611.52,729.93 3616.85,729.40 3619.07,724.52 3619.60,729.85" fill="#c2c8d1" />
<polygon points="1048.76,1165.73 1043.64,1164.80 1040.27,1168.76 1041.20,1163.64 1037.24,1160.27 1042.36,1161.20 1045.73,1157.24 1044.80,1162.36" fill="#f5a623" />
</svg>